HIERARCHY
ROOT Hips
{
	OFFSET -0.001795 -0.223333 0.028219
	CHANNELS 6 Xposition Yposition Zposition Zrotation Yrotation Xrotation 
	JOINT LeftUpLeg
	{
		OFFSET 0.069520 -0.091406 -0.006815
		CHANNELS 3 Zrotation Yrotation Xrotation
		JOINT LeftLeg
		{
			OFFSET 0.034277 -0.375199 -0.004496
			CHANNELS 3 Zrotation Yrotation Xrotation
			JOINT LeftFoot
			{
				OFFSET -0.013596 -0.397961 -0.043693
				CHANNELS 3 Zrotation Yrotation Xrotation
				JOINT LeftToe
				{
					OFFSET 0.026358 -0.055791 0.119288
					CHANNELS 3 Zrotation Yrotation Xrotation
					End Site
					{
						OFFSET 0.000000 0.000000 0.000000
					}
				}
			}
		}
	}
	JOINT RightUpLeg
	{
		OFFSET -0.067670 -0.090522 -0.004320
		CHANNELS 3 Zrotation Yrotation Xrotation
		JOINT RightLeg
		{
			OFFSET -0.038290 -0.382569 -0.008850
			CHANNELS 3 Zrotation Yrotation Xrotation
			JOINT RightFoot
			{
				OFFSET 0.015774 -0.398415 -0.042312
				CHANNELS 3 Zrotation Yrotation Xrotation
				JOINT RightToe
				{
					OFFSET -0.025372 -0.048144 0.123348
					CHANNELS 3 Zrotation Yrotation Xrotation
					End Site
					{
						OFFSET 0.000000 0.000000 0.000000
					}
				}
			}
		}
	}
	JOINT Spine
	{
		OFFSET -0.002533 0.108963 -0.026696
		CHANNELS 3 Zrotation Yrotation Xrotation
		JOINT Spine1
		{
			OFFSET 0.005487 0.135180 0.001092
			CHANNELS 3 Zrotation Yrotation Xrotation
			JOINT Spine2
			{
				OFFSET 0.001457 0.052922 0.025425
				CHANNELS 3 Zrotation Yrotation Xrotation
				JOINT Neck
				{
					OFFSET -0.002778 0.213870 -0.042857
					CHANNELS 3 Zrotation Yrotation Xrotation
					JOINT Head
					{
						OFFSET 0.005152 0.064970 0.051349
						CHANNELS 3 Zrotation Yrotation Xrotation
						End Site
						{
							OFFSET 0.000000 0.000000 0.000000
						}
					}
				}
				JOINT LeftShoulder
				{
					OFFSET 0.078845 0.121749 -0.034090
					CHANNELS 3 Zrotation Yrotation Xrotation
					JOINT LeftArm
					{
						OFFSET 0.090977 0.030469 -0.008868
						CHANNELS 3 Zrotation Yrotation Xrotation
						JOINT LeftForeArm
						{
							OFFSET 0.259612 -0.012772 -0.027456
							CHANNELS 3 Zrotation Yrotation Xrotation
							JOINT LeftHand
							{
								OFFSET 0.249234 0.008986 -0.001171
								CHANNELS 3 Zrotation Yrotation Xrotation
								End Site
								{
									OFFSET 0.000000 0.000000 0.000000
								}
							}
						}
					}
				}
				JOINT RightShoulder
				{
					OFFSET -0.081759 0.118833 -0.038615
					CHANNELS 3 Zrotation Yrotation Xrotation
					JOINT RightArm
					{
						OFFSET -0.096012 0.032551 -0.009143
						CHANNELS 3 Zrotation Yrotation Xrotation
						JOINT RightForeArm
						{
							OFFSET -0.253742 -0.013329 -0.021401
							CHANNELS 3 Zrotation Yrotation Xrotation
							JOINT RightHand
							{
								OFFSET -0.255298 0.007772 -0.005559
								CHANNELS 3 Zrotation Yrotation Xrotation
								End Site
								{
									OFFSET 0.000000 0.000000 0.000000
								}
							}
						}
					}
				}
			}
		}
	}
}
MOTION
Frames: 18
Frame Time: 0.050000
0.000000 0.946112 0.000000 2.231834 -1.676984 -4.742942 4.799517 -0.752428 -15.754077 -7.844467 2.602732 37.506658 5.292777 13.918341 19.619348 0.000000 0.000000 0.000000 -1.919067 1.199966 -13.830196 -0.864505 0.889049 15.274205 2.890630 -0.885952 14.615393 0.000000 0.000000 0.000000 4.829722 -1.370385 17.696605 -0.041592 0.627954 -25.525526 -1.360698 1.666065 28.892022 5.854261 -2.602847 -20.400676 0.000000 0.000000 0.000000 -16.476676 2.462763 -2.122809 -59.206113 11.646146 -15.524027 -15.495672 -23.259897 4.514070 0.000000 0.000000 0.000000 14.946899 -2.026035 -1.543653 56.260527 -7.067793 -11.554857 23.440509 29.421231 7.589281 0.000000 0.000000 0.000000 
0.005562 0.945749 -0.024798 2.404624 -4.123388 -4.532854 6.117260 -0.336532 -10.665229 -9.308811 4.224700 42.100903 -0.042838 10.090271 37.545108 0.000000 0.000000 0.000000 -2.494725 1.297839 -15.145404 0.160339 0.664936 14.376637 3.650778 0.010209 14.825099 0.000000 0.000000 0.000000 5.951753 -1.275992 15.318595 0.418892 0.428696 -24.343453 -3.248594 2.488082 27.362513 7.634119 -3.594136 -21.898224 0.000000 0.000000 0.000000 -13.583409 3.287841 -2.176846 -60.800901 13.136827 -16.482166 -17.297560 -21.545884 4.548830 0.000000 0.000000 0.000000 13.911068 -2.464568 -1.872367 55.950828 -13.096212 -13.953212 28.319887 25.562350 7.485659 0.000000 0.000000 0.000000 
0.012574 0.937300 -0.052684 2.601396 -4.406837 -5.942840 4.546371 -0.143896 -3.694358 -8.342759 3.916769 43.593564 -5.835733 4.721724 39.659936 0.000000 0.000000 0.000000 -3.262649 1.166196 -14.601375 0.914229 0.415198 12.578328 3.462568 -0.481504 14.984820 0.000000 0.000000 0.000000 6.695644 -1.243038 14.283564 -1.460456 0.874852 -23.410844 -3.155090 0.252283 29.299791 8.759485 -4.176805 -26.298038 0.000000 0.000000 0.000000 -12.521768 0.435889 -0.269570 -60.813422 10.227845 -15.117599 -16.083550 -21.255649 4.332718 0.000000 0.000000 0.000000 14.147596 -5.504719 -3.792777 55.573129 -16.016528 -15.402901 25.560338 22.404196 5.758487 0.000000 0.000000 0.000000 
0.020596 0.928465 -0.085631 2.489944 -5.205008 -6.692250 1.656826 0.200578 2.120943 -5.427204 2.299026 40.342168 -9.302768 -1.674630 32.390202 0.000000 0.000000 0.000000 -2.974675 1.401790 -16.746640 0.249177 0.630139 13.601873 3.949444 -0.188752 15.961191 0.000000 0.000000 0.000000 6.970967 -1.253009 14.400521 -1.083861 0.747339 -22.997113 -4.568500 -1.891139 29.437174 8.221124 -4.525133 -24.973202 0.000000 0.000000 0.000000 -12.381967 1.391694 -0.319328 -62.069037 10.278129 -15.277974 -14.168840 -21.784510 4.184283 0.000000 0.000000 0.000000 12.508859 -5.519714 -3.966985 56.922873 -18.243670 -17.004487 24.612626 18.008695 4.195726 0.000000 0.000000 0.000000 
0.029935 0.916439 -0.127134 1.801905 -4.769516 -6.970390 0.596323 0.632100 6.623225 -3.560205 0.961237 32.896426 -9.992046 -6.075940 24.340890 0.000000 0.000000 0.000000 -3.061268 1.573203 -18.869222 0.903423 0.407607 12.249219 3.734553 -1.933930 19.255874 0.000000 0.000000 0.000000 7.014580 -1.272640 14.484198 0.019473 0.418040 -21.479290 -5.568119 -3.023888 28.321804 9.404185 -5.279085 -25.476383 0.000000 0.000000 0.000000 -13.664924 -0.797711 0.847176 -59.074816 7.676872 -13.321967 -15.072666 -23.601492 4.717051 0.000000 0.000000 0.000000 14.336792 -7.263848 -5.328197 55.753250 -20.157380 -17.324481 23.350916 15.058035 3.202700 0.000000 0.000000 0.000000 
0.039426 0.905336 -0.175228 1.397239 -4.310738 -7.665945 -0.553276 0.787975 7.630664 -2.230594 0.268226 29.308738 -6.380454 -6.908069 11.389103 0.000000 0.000000 0.000000 -3.144861 1.677599 -20.340621 0.370688 0.371876 9.518152 3.967283 -2.443227 21.686895 0.000000 0.000000 0.000000 5.777933 -1.233707 15.704172 0.485095 0.309310 -21.786923 -5.604891 -5.020272 29.156836 11.731161 -6.891499 -26.298582 0.000000 0.000000 0.000000 -14.880674 -1.957920 1.807275 -56.968789 3.760448 -11.267874 -12.199433 -23.955241 4.170424 0.000000 0.000000 0.000000 14.142583 -7.534696 -5.716958 55.352215 -21.316475 -17.845946 21.815581 13.268049 2.528309 0.000000 0.000000 0.000000 
0.047285 0.901044 -0.224820 0.752865 -5.617457 -9.129863 0.085467 0.606581 6.072689 -3.419634 0.887804 29.527942 -4.542981 -6.000865 6.881425 0.000000 0.000000 0.000000 -2.604934 1.860340 -20.855632 0.570955 0.236440 7.116633 4.077912 -2.982891 22.848573 0.000000 0.000000 0.000000 4.730023 -1.253219 18.688181 0.788777 0.172553 -21.393236 -4.661810 -4.374024 28.624733 11.367762 -6.670193 -26.094665 0.000000 0.000000 0.000000 -15.990334 -2.261856 2.019706 -55.370427 0.079740 -9.417798 -10.861332 -25.267991 4.108501 0.000000 0.000000 0.000000 14.230874 -7.715709 -5.819389 56.605093 -21.033309 -18.164795 19.674188 12.633222 2.193614 0.000000 0.000000 0.000000 
0.052387 0.904958 -0.271098 0.580981 -6.848073 -10.115923 -0.755950 0.536694 5.096880 -3.907526 1.145473 27.478741 -0.575150 0.676520 4.866965 0.000000 0.000000 0.000000 -2.782608 1.930918 -21.413580 2.332057 0.119359 11.314066 1.065477 -5.679744 16.327776 0.000000 0.000000 0.000000 3.742699 -1.117426 19.758396 0.242071 0.290986 -21.675592 -3.528415 -3.324592 29.933736 11.225620 -6.466635 -27.211448 0.000000 0.000000 0.000000 -16.766627 -2.985376 2.455204 -53.689756 -1.615049 -8.737501 -9.383169 -26.909103 4.051101 0.000000 0.000000 0.000000 15.368803 -6.158908 -5.211881 56.404722 -19.700365 -17.599484 19.415387 14.429906 2.577533 0.000000 0.000000 0.000000 
0.054822 0.916092 -0.314498 -0.036856 -7.730187 -10.472070 -0.268861 0.374022 3.627698 -4.670102 1.409646 25.229815 1.653728 5.473785 6.885373 0.000000 0.000000 0.000000 -2.109094 2.117797 -21.736537 2.644167 0.573747 21.821364 -1.409018 -7.710658 9.339190 0.000000 0.000000 0.000000 4.389848 -1.190948 19.884046 -0.956783 0.578698 -20.505463 -2.427383 -2.324608 28.812217 10.363187 -5.888082 -26.493214 0.000000 0.000000 0.000000 -17.802596 -4.219160 3.010859 -53.265565 -1.247304 -8.782170 -7.587043 -27.284197 3.603066 0.000000 0.000000 0.000000 15.199274 -5.083337 -4.532183 57.492223 -17.223197 -16.721118 19.086354 16.589246 3.012181 0.000000 0.000000 0.000000 
0.054352 0.928209 -0.356532 -0.680907 -9.258919 -10.483504 0.177592 0.190020 1.760763 -4.878582 1.505535 23.149320 3.999069 10.235845 10.985050 0.000000 0.000000 0.000000 -1.669276 1.973577 -19.501945 2.597157 1.461480 32.322146 -3.012633 -10.221739 7.170721 0.000000 0.000000 0.000000 4.647877 -1.155343 19.418273 -0.379303 0.334637 -19.525442 -2.524361 -0.199057 27.552642 10.665148 -5.709064 -26.667651 0.000000 0.000000 0.000000 -17.805891 -4.432994 2.783174 -53.550543 -0.946833 -8.754687 -6.631923 -27.270263 3.294216 0.000000 0.000000 0.000000 15.981994 -3.010218 -3.431581 57.454681 -13.311007 -14.668723 15.960399 20.591934 3.374581 0.000000 0.000000 0.000000 
0.051321 0.936800 -0.398303 -0.692697 -8.644968 -10.061553 0.522868 -0.016120 -0.454444 -4.375244 1.211004 21.801215 3.207719 8.982071 11.442407 0.000000 0.000000 0.000000 -2.908206 1.377021 -15.738270 1.793839 2.575607 40.980047 -3.328153 -10.376699 5.929671 0.000000 0.000000 0.000000 4.391922 -1.064510 17.751147 -0.718139 0.460936 -19.767339 -1.532846 -0.338870 28.054833 8.701407 -4.703268 -25.368317 0.000000 0.000000 0.000000 -18.153143 -3.890253 2.502274 -54.257043 0.305558 -9.400766 -6.108673 -26.255035 3.040332 0.000000 0.000000 0.000000 15.582971 -1.793998 -2.738082 57.139042 -8.523216 -12.361734 14.150106 24.258605 3.700310 0.000000 0.000000 0.000000 
0.045424 0.939917 -0.441668 -0.382512 -8.932142 -9.802470 0.793398 -0.225243 -2.956845 -4.819047 1.396482 21.880812 4.007254 10.035718 9.868592 0.000000 0.000000 0.000000 -4.359595 0.698335 -9.261252 -0.627928 4.621075 46.332365 -2.498710 -7.953394 4.143098 0.000000 0.000000 0.000000 3.668282 -0.896259 16.184209 -0.729873 0.418738 -18.392845 -0.770948 1.754197 26.627066 10.445141 -5.362910 -25.239076 0.000000 0.000000 0.000000 -17.806232 -3.461085 1.784279 -54.200546 2.692664 -10.207034 -6.307566 -26.255593 2.998982 0.000000 0.000000 0.000000 17.474602 -0.062351 -1.780893 54.391584 -4.387522 -9.681363 11.120839 27.156906 3.566919 0.000000 0.000000 0.000000 
0.036396 0.936090 -0.488615 0.410933 -7.940842 -9.488439 0.518557 -0.551089 -6.619926 -5.500293 1.699729 24.305642 4.984800 11.224777 5.344999 0.000000 0.000000 0.000000 -7.103921 0.269570 -2.792912 -2.210995 5.625540 48.332683 -1.098367 -4.893085 4.358361 0.000000 0.000000 0.000000 1.898009 -0.679932 15.476693 -0.544313 0.442350 -20.230802 0.430442 2.783305 28.398833 10.513456 -5.164935 -25.791838 0.000000 0.000000 0.000000 -18.145512 -3.159415 1.378144 -54.000192 4.180163 -10.957533 -6.110500 -26.129034 2.910551 0.000000 0.000000 0.000000 17.646501 0.504455 -1.122542 54.198782 -0.560405 -8.190875 9.323005 30.514776 3.761739 0.000000 0.000000 0.000000 
0.023772 0.931423 -0.541467 0.961296 -8.477576 -8.815585 1.598094 -0.704175 -10.196105 -7.249782 2.512295 25.710480 5.838296 12.451694 1.827664 0.000000 0.000000 0.000000 -8.833299 0.232176 2.544898 -4.149963 6.715466 47.496087 0.600086 -2.244873 6.541511 0.000000 0.000000 0.000000 2.075280 -0.663710 14.622378 -1.040015 0.542933 -19.411244 0.607415 5.502955 28.066597 11.275254 -5.182632 -25.737704 0.000000 0.000000 0.000000 -17.828692 -3.527449 1.013455 -53.616559 6.194229 -11.606436 -4.537503 -26.045771 2.416567 0.000000 0.000000 0.000000 20.822278 2.897215 0.561629 51.658437 4.503591 -5.806776 4.377038 32.262237 2.815662 0.000000 0.000000 0.000000 
0.007630 0.926835 -0.600638 1.458515 -9.716987 -7.750019 2.383663 -0.753949 -13.063577 -7.475861 2.554856 23.722017 6.671653 14.060173 1.286319 0.000000 0.000000 0.000000 -10.445694 0.442611 6.204554 -6.445337 6.987528 41.523409 3.696636 2.679361 9.107618 0.000000 0.000000 0.000000 2.324884 -0.645107 13.777729 -1.965192 0.753167 -16.783054 1.143647 8.151354 25.584918 10.846439 -4.645042 -24.743200 0.000000 0.000000 0.000000 -16.578454 -5.211158 1.395254 -54.182598 9.317054 -12.771879 -5.419710 -26.267081 2.495920 0.000000 0.000000 0.000000 22.064894 4.247925 1.771141 50.516573 8.001758 -4.176910 0.441584 34.208288 1.980116 0.000000 0.000000 0.000000 
-0.011521 0.920106 -0.663992 1.777154 -11.030230 -7.095357 3.596065 -0.659038 -16.325052 -6.838672 2.279551 21.913404 7.187251 15.062312 3.778791 0.000000 0.000000 0.000000 -11.594675 0.719773 8.537038 -6.286348 5.966360 36.223190 4.174608 5.656882 5.940311 0.000000 0.000000 0.000000 0.759992 -0.484612 15.663525 -0.181482 0.202665 -19.104775 1.702646 9.130029 26.621100 11.780864 -5.089443 -25.494988 0.000000 0.000000 0.000000 -19.062211 -4.969048 1.207576 -52.247863 10.992678 -13.049306 -5.726332 -26.105108 2.545774 0.000000 0.000000 0.000000 19.978082 5.755308 2.652814 49.773732 11.770363 -2.726436 0.100719 36.816196 2.093865 0.000000 0.000000 0.000000 
-0.033183 0.915666 -0.728030 1.780397 -11.987004 -6.519682 5.192812 -0.361825 -18.116892 -5.445344 1.522082 17.302466 7.074503 14.792100 8.963597 0.000000 0.000000 0.000000 -12.057575 0.831047 8.060817 -5.529786 4.981845 32.422809 3.069895 7.625228 0.134570 0.000000 0.000000 0.000000 0.149941 -0.391640 16.611837 -0.069458 0.057667 -16.269753 2.594421 9.226513 24.008313 9.893312 -3.780520 -26.001398 0.000000 0.000000 0.000000 -18.388684 -4.654561 1.017739 -52.997189 12.570084 -13.599387 -6.681948 -24.965420 2.599472 0.000000 0.000000 0.000000 17.718577 7.439782 3.262479 49.635905 14.364828 -1.224815 -2.261119 39.610701 1.336062 0.000000 0.000000 0.000000 
-0.056622 0.908026 -0.790023 1.497962 -11.253532 -6.263510 7.099681 -0.004573 -19.609860 -4.984209 1.135153 13.680929 6.278191 13.595878 12.300851 0.000000 0.000000 0.000000 -14.187099 1.087854 8.137671 -2.851189 3.659397 31.538175 1.047506 0.212034 3.490741 0.000000 0.000000 0.000000 -0.217011 -0.359003 17.062826 0.992478 -0.287983 -15.173662 3.395828 9.587070 24.306817 7.964316 -2.249291 -27.731759 0.000000 0.000000 0.000000 -19.520779 -4.340035 0.576737 -51.937036 13.648638 -13.706045 -9.816312 -24.441063 3.177524 0.000000 0.000000 0.000000 16.822110 7.740359 3.571284 48.288874 16.354807 -0.460187 -2.949374 43.431596 1.332473 0.000000 0.000000 0.000000 
